<?xml version="1.0" standalone="no"?>
<!DOCTYPE svg PUBLIC "-//W3C//DTD SVG 20010904//EN"
 "http://www.w3.org/TR/2001/REC-SVG-20010904/DTD/svg10.dtd">
<svg version="1.0" xmlns="http://www.w3.org/2000/svg"
 width="500.000000pt" height="500.000000pt" viewBox="0 0 500.000000 500.000000"
 preserveAspectRatio="xMidYMid meet">
<metadata>
Created by potrace 1.11, written by Peter Selinger 2001-2013
</metadata>
<g transform="translate(0.000000,500.000000) scale(0.100000,-0.100000)"
fill="#000000" stroke="none">
<path d="M2380 4474 c-114 -41 -213 -143 -246 -253 -15 -49 -16 -140 -2 -225
2 -16 -61 -55 -352 -218 -195 -110 -369 -206 -387 -215 l-32 -16 -46 46 c-25
25 -76 61 -113 79 -60 30 -75 33 -157 33 -79 0 -97 -3 -150 -29 -77 -38 -153
-114 -191 -191 -26 -53 -29 -70 -29 -150 0 -76 4 -99 27 -147 48 -102 139
-182 246 -214 62 -19 166 -19 221 1 24 8 45 14 46 13 28 -41 275 -479 275
-487 0 -10 -262 -466 -275 -479 -2 -2 -27 4 -56 12 -248 74 -509 -137 -485
-393 12 -128 93 -246 212 -306 54 -27 68 -30 159 -30 90 0 106 3 160 29 33 17
82 52 108 78 l49 49 396 -225 396 -225 0 -118 c1 -112 3 -121 31 -173 41 -75
108 -140 180 -176 54 -26 70 -29 155 -29 85 0 101 3 155 29 155 76 245 243
215 400 -6 34 -12 67 -13 74 -1 7 165 106 380 227 l382 215 48 -48 c27 -27 75
-61 108 -78 54 -26 70 -29 160 -29 91 0 105 3 159 30 161 82 249 267 202 429
-44 149 -154 250 -306 278 l-60 12 0 126 c0 70 -3 268 -7 442 l-6 315 64 12
c234 46 373 288 290 505 -21 54 -85 133 -137 170 -73 50 -123 66 -214 66 -43
0 -96 -7 -119 -15 -55 -19 -144 -81 -167 -117 -11 -17 -26 -27 -35 -25 -12 3
-761 419 -776 431 -1 0 5 26 13 56 46 168 -41 352 -203 432 -80 39 -199 49
-273 22z m-194 -571 c9 -16 32 -42 51 -59 l33 -30 -244 -418 c-134 -230 -249
-423 -254 -428 -7 -7 -69 23 -184 87 -95 54 -179 103 -185 109 -10 9 -9 22 2
60 19 64 19 159 -1 225 -8 29 -14 54 -12 56 10 8 764 425 769 425 4 0 15 -12
25 -27z m980 -179 c192 -108 368 -207 391 -220 l42 -24 -13 -38 c-29 -81 -26
-196 8 -272 5 -11 -37 -39 -171 -115 -97 -55 -180 -101 -184 -103 -4 -2 -119
183 -255 410 -136 227 -252 420 -258 430 -8 13 1 28 40 71 27 31 49 56 50 56
0 1 158 -87 350 -195z m-691 18 c54 -3 85 1 134 17 35 12 64 21 66 19 1 -2
117 -195 257 -430 l256 -426 -185 -105 -186 -105 -56 57 c-32 33 -81 70 -116
87 -53 25 -71 29 -150 29 -81 0 -97 -3 -155 -32 -66 -32 -112 -69 -142 -111
l-16 -23 -181 103 c-99 57 -181 107 -182 111 0 4 110 199 247 431 l247 424 46
-21 c26 -11 76 -22 116 -25z m-929 -724 c101 -57 183 -107 184 -111 0 -12
-191 -337 -199 -337 -4 0 -66 101 -138 225 l-131 224 46 49 c26 27 49 50 51
51 3 0 87 -45 187 -101z m420 -239 c99 -56 180 -103 182 -104 1 -1 -5 -19 -14
-41 -22 -51 -22 -184 -1 -241 12 -32 13 -44 4 -51 -25 -19 -344 -202 -353
-202 -12 0 -209 339 -209 360 0 12 204 379 211 380 1 0 82 -46 180 -101z
m-261 -635 l24 -42 -183 -106 -184 -107 -49 49 -49 48 123 210 c67 115 127
217 133 228 10 16 21 2 86 -110 42 -71 86 -148 99 -170z m592 49 c46 -29 81
-42 166 -58 l27 -5 0 -434 0 -433 -40 -7 c-22 -3 -60 -16 -85 -28 -24 -12 -46
-20 -48 -17 -10 11 -499 855 -500 863 -1 5 81 58 181 117 l184 107 31 -35 c18
-20 55 -51 84 -70z m-277 -591 l252 -432 -34 -38 c-18 -21 -38 -47 -43 -56
-10 -18 -136 50 -762 410 l-42 24 16 43 c21 58 21 190 -1 241 -9 22 -14 41
-12 44 19 19 362 210 368 204 3 -4 120 -202 258 -440z"/>
</g>
</svg>
